####
#
# OBJ File Generated by Meshlab
#
####
# Object real.obj
#
# Vertices: 186
# Faces: 324
#
####
vn 0.0000000 1.5707960 2.2214410
v 1589.3493652 701.0000000 3179.7641602
vn 0.0000000 -1.5707960 2.2214413
v 1589.3493652 100.9999847 3179.7641602
vn 2.2214420 1.5707967 0.0000001
v 2013.6134033 701.0000000 2755.5000000
vn 2.2214420 -1.5707967 -0.0000001
v 2013.6134033 100.9999847 2755.5000000
vn -2.2214420 1.5707967 -0.0000001
v 1165.0853271 701.0000000 2755.5000000
vn 0.0000000 1.5707960 -2.2214410
v 1589.3493652 701.0000000 2331.2358398
vn -2.2214420 -1.5707967 0.0000001
v 1165.0853271 100.9999847 2755.5000000
vn 0.0000000 -1.5707960 -2.2214413
v 1589.3493652 100.9999847 2331.2358398
vn 1.5707964 1.5707964 1.5707964
v 2863.6135254 701.0000000 4725.5000000
vn 1.5707964 -1.5707964 1.5707964
v 2863.6135254 100.9999847 4725.5000000
vn 1.5707964 1.5707964 -1.5707964
v 2863.6135254 701.0000000 4125.5000000
vn 1.5707964 -1.5707964 -1.5707964
v 2863.6135254 100.9999847 4125.5000000
vn -1.5707964 1.5707964 1.5707964
v 2263.6135254 701.0000000 4725.5000000
vn -1.5707964 1.5707964 -1.5707964
v 2263.6135254 701.0000000 4125.5000000
vn -1.5707964 -1.5707964 1.5707964
v 2263.6135254 100.9999847 4725.5000000
vn -1.5707964 -1.5707964 -1.5707964
v 2263.6135254 100.9999847 4125.5000000
vn -1.5707964 -1.5707964 -1.5707964
v 2263.6135254 100.9999695 575.5000000
vn -1.5707964 -1.5707964 1.5707964
v 2263.6135254 100.9999695 1175.5000000
vn -1.5707964 1.5707964 -1.5707964
v 2263.6135254 701.0000000 575.5000000
vn -3.1415927 3.1415927 0.0000000
v 2263.6135254 701.0000000 1175.5000000
vn 1.5707964 -1.5707964 -1.5707964
v 2863.6135254 100.9999695 575.5000000
vn 1.5707964 1.5707964 -1.5707964
v 2863.6135254 701.0000000 575.5000000
vn 1.5707964 -1.5707964 1.5707964
v 2863.6135254 100.9999695 1175.5000000
vn 3.1415927 3.1415927 0.0000000
v 2863.6135254 701.0000000 1175.5000000
vn -2.2214415 -1.5707963 -0.0000002
v 75.0852814 100.9999847 1775.5000000
vn -2.2214415 1.5707963 -0.0000002
v 75.0852814 701.0000000 1775.5000000
vn 0.0000000 -1.5707965 -2.2214417
v 499.3493652 100.9999847 1351.2359619
vn 0.0000000 1.5707965 -2.2214417
v 499.3493652 701.0000000 1351.2359619
vn 0.0000000 -1.5707963 2.2214413
v 499.3493652 100.9999847 2199.7641602
vn 2.2214415 -1.5707963 -0.0000002
v 923.6134644 100.9999847 1775.5000000
vn 0.0000000 1.5707964 2.2214413
v 499.3493652 701.0000000 2199.7641602
vn 2.2214415 1.5707963 -0.0000002
v 923.6134644 701.0000000 1775.5000000
vn 1.5707964 1.5707964 1.5707964
v 2863.6135254 1301.0000000 4355.5000000
vn 1.5707964 -1.5707964 1.5707964
v 2863.6135254 701.0000000 4355.5000000
vn 1.5707964 1.5707964 -1.5707964
v 2863.6135254 1301.0000000 3755.5000000
vn 1.5707964 -1.5707964 -1.5707964
v 2863.6135254 701.0000000 3755.5000000
vn -1.5707964 1.5707964 1.5707964
v 2263.6135254 1301.0000000 4355.5000000
vn -1.5707964 1.5707964 -1.5707964
v 2263.6135254 1301.0000000 3755.5000000
vn -1.5707964 -1.5707964 1.5707964
v 2263.6135254 701.0000000 4355.5000000
vn -1.5707964 -1.5707964 -1.5707964
v 2263.6135254 701.0000000 3755.5000000
vn 1.5707964 1.5707964 -1.5707964
v 1673.6134033 701.0000000 75.5000000
vn 1.5707964 1.5707964 1.5707964
v 1673.6134033 701.0000000 675.5000000
vn 1.5707964 -1.5707964 -1.5707964
v 1673.6134033 100.9999924 75.5000000
vn 1.5707964 -1.5707964 1.5707964
v 1673.6134033 100.9999924 675.5000000
vn 0.0000000 3.1415927 -3.1415927
v 1073.6134033 701.0000000 75.5000000
vn -1.5707964 -1.5707964 -1.5707964
v 1073.6134033 100.9999924 75.5000000
vn 0.0000000 3.1415927 3.1415927
v 1073.6134033 701.0000000 675.5000000
vn -1.5707964 -1.5707964 1.5707964
v 1073.6134033 100.9999924 675.5000000
vn -3.1415927 0.0000000 -3.1415930
v 473.6134338 701.0000000 75.5000000
vn -3.1415927 0.0000004 3.1415927
v 473.6134338 701.0000000 675.5000000
vn -1.5707964 -1.5707964 -1.5707964
v 473.6134338 100.9999847 75.5000000
vn 1.5707964 -1.5707964 -1.5707964
v 1073.6134033 100.9999847 75.5000000
vn -1.5707964 -1.5707964 1.5707964
v 473.6134338 100.9999847 675.5000000
vn 1.5707964 -1.5707964 1.5707964
v 1073.6134033 100.9999847 675.5000000
vn 1.5707963 -1.5707964 4.7123890
v 1098.6134033 1051.0000000 675.5000000
vn 1.5707964 -1.5707963 -4.7123890
v 1098.6134033 1051.0000000 75.5000000
vn -1.5707964 -1.5707963 4.7123890
v 1623.6134033 1051.0000000 675.5000000
vn -1.5707963 -1.5707964 -4.7123890
v 1623.6134033 1051.0000000 75.5000000
vn -1.5707963 -1.5707964 -4.7123890
v 1048.6134033 1051.0000000 75.5000000
vn -1.5707964 -1.5707963 4.7123890
v 1048.6134033 1051.0000000 675.5000000
vn 1.5707964 -1.5707963 -4.7123890
v 523.6134033 1051.0000000 75.5000000
vn 1.5707963 -1.5707964 4.7123890
v 523.6134033 1051.0000000 675.5000000
vn 1.5707963 -1.5707960 -1.5707964
v 523.6134033 701.0000000 75.5000000
vn -1.5707964 1.5707963 -1.5707959
v 473.6134338 1101.0000000 75.5000000
vn 1.5707964 -1.5707958 -1.5707964
v 1673.6135254 701.0000000 75.5000000
vn -1.5707964 -1.5707964 -1.5707966
v 1623.6134033 701.0000000 75.5000000
vn 1.5707963 1.5707964 -1.5707939
v 1673.6135254 1101.0000000 75.5000000
vn 1.5707963 -1.5707959 -1.5707964
v 1098.6134033 701.0000000 75.5000000
vn -1.5707964 -1.5707964 -1.5707965
v 1048.6134033 701.0000000 75.5000000
vn -1.5707963 -1.5707959 1.5707964
v 1048.6134033 701.0000000 675.5000000
vn -1.5707963 -1.5707958 1.5707964
v 1623.6134033 701.0000000 675.5000000
vn 1.5707963 -1.5707964 1.5707963
v 1673.6135254 701.0000000 675.5000000
vn 1.5707964 1.5707963 1.5707959
v 1673.6135254 1101.0000000 675.5000000
vn 1.5707964 -1.5707964 1.5707965
v 523.6134033 701.0000000 675.5000000
vn -1.5707963 1.5707964 1.5707936
v 473.6134338 1101.0000000 675.5000000
vn 1.5707964 -1.5707964 1.5707965
v 1098.6134033 701.0000000 675.5000000
vn -1.5707964 1.5707961 4.7123890
v 3098.6135254 1001.0000000 2150.5000000
vn -1.5707964 1.5707964 1.5707961
v 3098.6135254 1151.0000000 2150.5000000
vn -1.5707964 1.5707964 -4.7123885
v 3098.6135254 1001.0000000 2000.5000000
vn -1.5707964 1.5707961 -1.5707964
v 3098.6135254 1151.0000000 2000.5000000
vn -1.5707964 1.5707964 1.5707963
v 2798.6135254 1001.0000000 2150.5000000
vn -1.5707964 1.5707961 -1.5707964
v 2798.6135254 1001.0000000 2000.5000000
vn -1.5707964 1.5707964 4.7123890
v 2798.6135254 851.0000000 2150.5000000
vn -1.5707964 1.5707964 -4.7123890
v 2798.6135254 851.0000000 2000.5000000
vn -1.5707964 1.5707964 1.5707964
v 2648.6135254 851.0000000 2150.5000000
vn -1.5707964 1.5707964 -1.5707961
v 2648.6135254 851.0000000 2000.5000000
vn -1.5707964 -1.5707961 1.5707964
v 2648.6135254 701.0000000 2150.5000000
vn -1.5707964 -1.5707964 -1.5707964
v 2648.6135254 701.0000000 2000.5000000
vn 1.5707964 -1.5707964 1.5707964
v 2948.6135254 701.0000000 2150.5000000
vn 1.5707964 -1.5707961 -1.5707963
v 2948.6135254 701.0000000 2000.5000000
vn 1.5707964 -1.5707963 4.7123890
v 2948.6135254 851.0000000 2150.5000000
vn 1.5707964 -1.5707964 -4.7123890
v 2948.6135254 851.0000000 2000.5000000
vn -1.5707964 -1.5707964 4.7123880
v 3848.6135254 851.0000000 2150.5000000
vn -1.5707964 -1.5707963 -4.7123880
v 3848.6135254 851.0000000 2000.5000000
vn -1.5707964 -1.5707963 1.5707964
v 3848.6135254 701.0000000 2150.5000000
vn -1.5707964 -1.5707964 -1.5707964
v 3848.6135254 701.0000000 2000.5000000
vn 1.5707964 -1.5707964 1.5707964
v 4148.6132812 701.0000000 2150.5000000
vn 1.5707964 -1.5707963 -1.5707964
v 4148.6132812 701.0000000 2000.5000000
vn 1.5707964 1.5707964 1.5707963
v 4148.6132812 851.0000000 2150.5000000
vn 1.5707964 1.5707964 -1.5707964
v 4148.6132812 851.0000000 2000.5000000
vn 1.5707964 1.5707964 4.7123890
v 3998.6135254 851.0000000 2150.5000000
vn 1.5707964 1.5707964 -4.7123890
v 3998.6135254 851.0000000 2000.5000000
vn 1.5707964 1.5707964 1.5707964
v 3998.6135254 1001.0000000 2150.5000000
vn 1.5707964 1.5707964 -1.5707963
v 3998.6135254 1001.0000000 2000.5000000
vn 1.5707964 1.5707964 4.7123890
v 3848.6135254 1001.0000000 2150.5000000
vn 1.5707964 1.5707964 -4.7123890
v 3848.6135254 1001.0000000 2000.5000000
vn 1.5707964 1.5707961 1.5707964
v 3848.6135254 1151.0000000 2150.5000000
vn 1.5707964 1.5707964 -1.5707961
v 3848.6135254 1151.0000000 2000.5000000
vn -1.5707964 1.5707964 1.5707961
v 3548.6135254 1151.0000000 2150.5000000
vn -1.5707964 1.5707961 -1.5707964
v 3548.6135254 1151.0000000 2000.5000000
vn -1.5707964 1.5707964 4.7123890
v 3548.6135254 1001.0000000 2150.5000000
vn -1.5707964 1.5707964 -4.7123885
v 3548.6135254 1001.0000000 2000.5000000
vn 1.5707964 1.5707964 4.7123890
v 3398.6135254 1001.0000000 2150.5000000
vn 1.5707964 1.5707964 -4.7123890
v 3398.6135254 1001.0000000 2000.5000000
vn 1.5707964 1.5707961 1.5707964
v 3398.6135254 1151.0000000 2150.5000000
vn 1.5707964 1.5707964 -1.5707961
v 3398.6135254 1151.0000000 2000.5000000
vn 1.5707965 1.5707974 1.5707964
v 75.0853043 2101.0000000 5075.5000000
vn -1.5707964 1.5707964 1.5707953
v 25.0853062 2101.0000000 5075.5000000
vn 1.5707964 -1.5707964 1.5707953
v 75.0853043 100.9999924 5075.5000000
vn -1.5707965 -1.5707974 1.5707964
v 25.0853062 100.9999924 5075.5000000
vn 1.5707964 1.5707964 -1.5707953
v 75.0853043 2101.0000000 75.5000153
vn 1.5707965 -1.5707974 -1.5707964
v 75.0853043 100.9999924 75.5000153
vn -1.5707965 1.5707974 -1.5707964
v 25.0853062 2101.0000000 75.5000153
vn -1.5707964 -1.5707964 -1.5707953
v 25.0853062 100.9999924 75.5000153
vn 1.5707965 1.5707974 1.5707964
v 4583.6132812 2101.0000000 5075.5000000
vn 0.0000000 3.1415946 -0.0000010
v 4533.6132812 2101.0000000 5075.5000000
vn 1.5707964 -1.5707964 1.5707953
v 4583.6132812 100.9999924 5075.5000000
vn -0.0000012 -3.1415939 0.0000000
v 4533.6132812 100.9999924 5075.5000000
vn 1.5707964 1.5707964 -1.5707953
v 4583.6132812 2101.0000000 75.5000153
vn 1.5707965 -1.5707974 -1.5707964
v 4583.6132812 100.9999924 75.5000153
vn -0.0000012 3.1415939 0.0000000
v 4533.6132812 2101.0000000 75.5000153
vn 0.0000000 -3.1415946 0.0000010
v 4533.6132812 100.9999924 75.5000153
vn 1.5707980 -1.5707964 -1.5707964
v 2463.6135254 0.9999961 75.5000153
vn -1.5707964 -1.5707965 -1.5707973
v 533.6134644 0.9999961 75.5000153
vn 1.5707964 1.5707964 -1.5707973
v 2463.6135254 101.0000000 75.5000153
vn -1.5707980 1.5707965 -1.5707964
v 533.6134644 101.0000000 75.5000153
vn 1.5707980 1.5707965 1.5707964
v 2463.6135254 101.0000000 5075.5000000
vn -1.5707964 1.5707964 1.5707973
v 533.6134644 101.0000000 5075.5000000
vn 1.5707964 -1.5707965 1.5707973
v 2463.6135254 0.9999961 5075.5000000
vn -1.5707980 -1.5707964 1.5707964
v 533.6134644 0.9999961 5075.5000000
vn 1.5707964 1.5707964 -1.5707961
v 4533.6132812 101.0000000 75.5000153
vn 1.5707980 1.5707960 1.5707964
v 4533.6132812 101.0000000 5075.5000000
vn 1.5707980 -1.5707964 -1.5707964
v 4533.6132812 0.9999961 75.5000153
vn 1.5707964 -1.5707960 1.5707961
v 4533.6132812 0.9999961 5075.5000000
vn -1.5707964 -1.5707960 -1.5707961
v 3933.6135254 0.9999961 75.5000153
vn -1.5707980 -1.5707964 1.5707964
v 3933.6135254 0.9999961 5075.5000000
vn -1.5707964 1.5707964 1.5707961
v 3933.6135254 101.0000000 5075.5000000
vn -1.5707980 1.5707960 -1.5707964
v 3933.6135254 101.0000000 75.5000153
vn 1.5707964 1.5707983 -1.5707963
v 4533.6132812 2101.0000000 25.5000114
vn 1.5707953 -1.5707964 -1.5707964
v 4533.6132812 100.9999924 25.5000114
vn -1.5707953 1.5707964 -1.5707964
v 533.6134644 2101.0000000 25.5000114
vn -1.5707964 -1.5707983 -1.5707963
v 533.6134644 100.9999924 25.5000114
vn -1.5707964 1.5707983 1.5707963
v 533.6134644 2101.0000000 75.5000153
vn -1.5707953 -1.5707964 1.5707964
v 533.6134644 100.9999924 75.5000153
vn 1.5707953 1.5707964 1.5707964
v 4533.6132812 2101.0000000 5125.5000000
vn 1.5707964 -1.5707983 1.5707963
v 4533.6132812 100.9999924 5125.5000000
vn -1.5707953 1.5707964 -1.5707964
v 533.6134644 2101.0000000 5075.5000000
vn -1.5707964 -1.5707983 -1.5707963
v 533.6134644 100.9999924 5075.5000000
vn -1.5707964 1.5707983 1.5707963
v 533.6134644 2101.0000000 5125.5000000
vn -1.5707953 -1.5707964 1.5707964
v 533.6134644 100.9999924 5125.5000000
vn 1.5707964 1.5707965 1.5707965
v 4533.6132812 701.0000000 2275.5000000
vn 1.5707964 -1.5707964 1.5707964
v 4533.6132812 100.9999847 2275.5000000
vn 1.5707964 1.5707964 -1.5707964
v 4533.6132812 701.0000000 1675.5000000
vn 1.5707964 -1.5707965 -1.5707965
v 4533.6132812 100.9999847 1675.5000000
vn -1.5707964 1.5707964 1.5707964
v 3933.6135254 701.0000000 2275.5000000
vn -1.5707964 1.5707965 -1.5707965
v 3933.6135254 701.0000000 1675.5000000
vn -1.5707964 -1.5707965 1.5707965
v 3933.6135254 100.9999847 2275.5000000
vn -1.5707964 -1.5707964 -1.5707964
v 3933.6135254 100.9999847 1675.5000000
vn 1.5707964 1.5707964 1.5707964
v 2863.6135254 701.0000000 2375.5000000
vn 1.5707964 -1.5707964 1.5707964
v 2863.6135254 100.9999847 2375.5000000
vn 3.1415927 3.1415927 0.0000000
v 2863.6135254 701.0000000 1775.5000000
vn 3.1415927 -3.1415927 0.0000000
v 2863.6135254 100.9999847 1775.5000000
vn -1.5707964 1.5707964 1.5707964
v 2263.6135254 701.0000000 2375.5000000
vn -3.1415927 3.1415927 0.0000000
v 2263.6135254 701.0000000 1775.5000000
vn -1.5707964 -1.5707964 1.5707964
v 2263.6135254 100.9999847 2375.5000000
vn -3.1415927 -3.1415927 0.0000000
v 2263.6135254 100.9999847 1775.5000000
vn 1.5707964 -1.5707964 -1.5707964
v 2863.6135254 100.9999847 1175.5000000
vn -1.5707964 -1.5707964 -1.5707964
v 2263.6135254 100.9999847 1175.5000000
vn 1.5707964 1.5707964 1.5707964
v 2863.6135254 701.0000000 3255.5000000
vn 1.5707964 -1.5707964 1.5707964
v 2863.6135254 100.9999847 3255.5000000
vn 1.5707964 1.5707964 -1.5707964
v 2863.6135254 701.0000000 2655.5000000
vn 1.5707964 -1.5707964 -1.5707964
v 2863.6135254 100.9999847 2655.5000000
vn -1.5707964 1.5707964 1.5707964
v 2263.6135254 701.0000000 3255.5000000
vn -1.5707964 1.5707964 -1.5707964
v 2263.6135254 701.0000000 2655.5000000
vn -1.5707964 -1.5707964 1.5707964
v 2263.6135254 100.9999847 3255.5000000
vn -1.5707964 -1.5707964 -1.5707964
v 2263.6135254 100.9999847 2655.5000000
# 186 vertices, 0 vertices normals

f 1//1 2//2 3//3
f 3//3 2//2 4//4
f 5//5 1//1 6//6
f 6//6 1//1 3//3
f 7//7 5//5 8//8
f 8//8 5//5 6//6
f 2//2 7//7 4//4
f 4//4 7//7 8//8
f 5//5 7//7 1//1
f 1//1 7//7 2//2
f 8//8 6//6 4//4
f 4//4 6//6 3//3
f 9//9 10//10 11//11
f 11//11 10//10 12//12
f 13//13 9//9 14//14
f 14//14 9//9 11//11
f 15//15 13//13 16//16
f 16//16 13//13 14//14
f 10//10 15//15 12//12
f 12//12 15//15 16//16
f 13//13 15//15 9//9
f 9//9 15//15 10//10
f 16//16 14//14 12//12
f 12//12 14//14 11//11
f 17//17 18//18 19//19
f 19//19 18//18 20//20
f 21//21 17//17 22//22
f 22//22 17//17 19//19
f 23//23 21//21 24//24
f 24//24 21//21 22//22
f 18//18 23//23 20//20
f 20//20 23//23 24//24
f 21//21 23//23 17//17
f 17//17 23//23 18//18
f 24//24 22//22 20//20
f 20//20 22//22 19//19
f 25//25 26//26 27//27
f 27//27 26//26 28//28
f 29//29 25//25 30//30
f 30//30 25//25 27//27
f 31//31 29//29 32//32
f 32//32 29//29 30//30
f 26//26 31//31 28//28
f 28//28 31//31 32//32
f 29//29 31//31 25//25
f 25//25 31//31 26//26
f 32//32 30//30 28//28
f 28//28 30//30 27//27
f 33//33 34//34 35//35
f 35//35 34//34 36//36
f 37//37 33//33 38//38
f 38//38 33//33 35//35
f 39//39 37//37 40//40
f 40//40 37//37 38//38
f 34//34 39//39 36//36
f 36//36 39//39 40//40
f 37//37 39//39 33//33
f 33//33 39//39 34//34
f 40//40 38//38 36//36
f 36//36 38//38 35//35
f 41//41 42//42 43//43
f 43//43 42//42 44//44
f 45//45 41//41 46//46
f 46//46 41//41 43//43
f 47//47 45//45 48//48
f 48//48 45//45 46//46
f 42//42 47//47 44//44
f 44//44 47//47 48//48
f 45//45 47//47 41//41
f 41//41 47//47 42//42
f 48//48 46//46 44//44
f 44//44 46//46 43//43
f 49//49 50//50 45//45
f 45//45 50//50 47//47
f 51//51 49//49 52//52
f 52//52 49//49 45//45
f 53//53 51//51 54//54
f 54//54 51//51 52//52
f 50//50 53//53 47//47
f 47//47 53//53 54//54
f 51//51 53//53 49//49
f 49//49 53//53 50//50
f 54//54 52//52 47//47
f 47//47 52//52 45//45
f 55//55 56//56 57//57
f 57//57 56//56 58//58
f 59//59 60//60 61//61
f 61//61 60//60 62//62
f 63//63 49//49 61//61
f 61//61 49//49 64//64
f 61//61 64//64 59//59
f 65//65 66//66 67//67
f 67//67 66//66 58//58
f 67//67 58//58 56//56
f 68//68 69//69 56//56
f 56//56 69//69 59//59
f 56//56 59//59 67//67
f 67//67 59//59 64//64
f 60//60 59//59 70//70
f 70//70 59//59 69//69
f 71//71 72//72 57//57
f 57//57 72//72 73//73
f 57//57 73//73 55//55
f 50//50 74//74 75//75
f 75//75 74//74 62//62
f 75//75 62//62 60//60
f 70//70 76//76 60//60
f 60//60 76//76 55//55
f 60//60 55//55 75//75
f 75//75 55//55 73//73
f 56//56 55//55 68//68
f 68//68 55//55 76//76
f 76//76 70//70 68//68
f 68//68 70//70 69//69
f 65//65 67//67 72//72
f 72//72 67//67 73//73
f 50//50 75//75 49//49
f 49//49 75//75 64//64
f 67//67 64//64 73//73
f 73//73 64//64 75//75
f 61//61 62//62 63//63
f 63//63 62//62 74//74
f 74//74 50//50 63//63
f 63//63 50//50 49//49
f 57//57 58//58 71//71
f 71//71 58//58 66//66
f 72//72 71//71 65//65
f 65//65 71//71 66//66
f 77//77 78//78 79//79
f 79//79 78//78 80//80
f 81//81 77//77 82//82
f 82//82 77//77 79//79
f 83//83 81//81 84//84
f 84//84 81//81 82//82
f 85//85 83//83 86//86
f 86//86 83//83 84//84
f 87//87 85//85 88//88
f 88//88 85//85 86//86
f 89//89 87//87 90//90
f 90//90 87//87 88//88
f 91//91 89//89 92//92
f 92//92 89//89 90//90
f 93//93 91//91 94//94
f 94//94 91//91 92//92
f 95//95 93//93 96//96
f 96//96 93//93 94//94
f 97//97 95//95 98//98
f 98//98 95//95 96//96
f 99//99 97//97 100//100
f 100//100 97//97 98//98
f 101//101 99//99 102//102
f 102//102 99//99 100//100
f 103//103 101//101 104//104
f 104//104 101//101 102//102
f 105//105 103//103 106//106
f 106//106 103//103 104//104
f 107//107 105//105 108//108
f 108//108 105//105 106//106
f 109//109 107//107 110//110
f 110//110 107//107 108//108
f 111//111 109//109 112//112
f 112//112 109//109 110//110
f 113//113 111//111 114//114
f 114//114 111//111 112//112
f 115//115 113//113 116//116
f 116//116 113//113 114//114
f 78//78 115//115 80//80
f 80//80 115//115 116//116
f 105//105 107//107 109//109
f 97//97 99//99 95//95
f 95//95 99//99 101//101
f 95//95 101//101 93//93
f 115//115 78//78 113//113
f 113//113 78//78 77//77
f 109//109 111//111 105//105
f 105//105 111//111 93//93
f 105//105 93//93 103//103
f 103//103 93//93 101//101
f 85//85 87//87 83//83
f 83//83 87//87 89//89
f 83//83 89//89 81//81
f 81//81 89//89 91//91
f 81//81 91//91 77//77
f 77//77 91//91 93//93
f 77//77 93//93 113//113
f 113//113 93//93 111//111
f 114//114 112//112 94//94
f 80//80 116//116 79//79
f 79//79 116//116 114//114
f 79//79 114//114 92//92
f 92//92 114//114 94//94
f 88//88 86//86 90//90
f 90//90 86//86 84//84
f 90//90 84//84 92//92
f 92//92 84//84 82//82
f 92//92 82//82 79//79
f 100//100 98//98 102//102
f 102//102 98//98 96//96
f 102//102 96//96 104//104
f 104//104 96//96 94//94
f 104//104 94//94 106//106
f 106//106 94//94 112//112
f 106//106 112//112 108//108
f 108//108 112//112 110//110
f 117//117 118//118 119//119
f 119//119 118//118 120//120
f 121//121 117//117 122//122
f 122//122 117//117 119//119
f 123//123 121//121 124//124
f 124//124 121//121 122//122
f 118//118 123//123 120//120
f 120//120 123//123 124//124
f 121//121 123//123 117//117
f 117//117 123//123 118//118
f 124//124 122//122 120//120
f 120//120 122//122 119//119
f 125//125 126//126 127//127
f 127//127 126//126 128//128
f 129//129 125//125 130//130
f 130//130 125//125 127//127
f 131//131 129//129 132//132
f 132//132 129//129 130//130
f 126//126 131//131 128//128
f 128//128 131//131 132//132
f 129//129 131//131 125//125
f 125//125 131//131 126//126
f 132//132 130//130 128//128
f 128//128 130//130 127//127
f 133//133 134//134 135//135
f 135//135 134//134 136//136
f 137//137 138//138 139//139
f 139//139 138//138 140//140
f 135//135 136//136 137//137
f 137//137 136//136 138//138
f 140//140 134//134 139//139
f 139//139 134//134 133//133
f 138//138 136//136 140//140
f 140//140 136//136 134//134
f 139//139 133//133 137//137
f 137//137 133//133 135//135
f 141//141 142//142 143//143
f 143//143 142//142 144//144
f 143//143 144//144 145//145
f 145//145 144//144 146//146
f 147//147 142//142 148//148
f 148//148 142//142 141//141
f 146//146 144//144 147//147
f 147//147 144//144 142//142
f 148//148 141//141 145//145
f 145//145 141//141 143//143
f 145//145 146//146 148//148
f 148//148 146//146 147//147
f 149//149 131//131 150//150
f 150//150 131//131 132//132
f 151//151 149//149 152//152
f 152//152 149//149 150//150
f 153//153 151//151 154//154
f 154//154 151//151 152//152
f 131//131 153//153 132//132
f 132//132 153//153 154//154
f 151//151 153//153 149//149
f 149//149 153//153 131//131
f 154//154 152//152 132//132
f 132//132 152//152 150//150
f 126//126 155//155 128//128
f 128//128 155//155 156//156
f 157//157 126//126 158//158
f 158//158 126//126 128//128
f 159//159 157//157 160//160
f 160//160 157//157 158//158
f 155//155 159//159 156//156
f 156//156 159//159 160//160
f 157//157 159//159 126//126
f 126//126 159//159 155//155
f 160//160 158//158 156//156
f 156//156 158//158 128//128
f 161//161 162//162 163//163
f 163//163 162//162 164//164
f 165//165 161//161 166//166
f 166//166 161//161 163//163
f 167//167 165//165 168//168
f 168//168 165//165 166//166
f 162//162 167//167 164//164
f 164//164 167//167 168//168
f 165//165 167//167 161//161
f 161//161 167//167 162//162
f 168//168 166//166 164//164
f 164//164 166//166 163//163
f 169//169 170//170 171//171
f 171//171 170//170 172//172
f 173//173 169//169 174//174
f 174//174 169//169 171//171
f 175//175 173//173 176//176
f 176//176 173//173 174//174
f 170//170 175//175 172//172
f 172//172 175//175 176//176
f 173//173 175//175 169//169
f 169//169 175//175 170//170
f 176//176 174//174 172//172
f 172//172 174//174 171//171
f 171//171 172//172 24//24
f 24//24 172//172 177//177
f 174//174 171//171 20//20
f 20//20 171//171 24//24
f 176//176 174//174 178//178
f 178//178 174//174 20//20
f 172//172 176//176 177//177
f 177//177 176//176 178//178
f 174//174 176//176 171//171
f 171//171 176//176 172//172
f 178//178 20//20 177//177
f 177//177 20//20 24//24
f 179//179 180//180 181//181
f 181//181 180//180 182//182
f 183//183 179//179 184//184
f 184//184 179//179 181//181
f 185//185 183//183 186//186
f 186//186 183//183 184//184
f 180//180 185//185 182//182
f 182//182 185//185 186//186
f 183//183 185//185 179//179
f 179//179 185//185 180//180
f 186//186 184//184 182//182
f 182//182 184//184 181//181
# 324 faces, 0 coords texture

# End of File
