####
#
# OBJ File Generated by Meshlab
#
####
# Object real_paper.obj
#
# Vertices: 166
# Faces: 292
#
####
vn -1.5707964 1.5707963 1.5707953
v 23.6229897 142.4100037 5025.0000000
vn -1.5707980 1.5707964 -1.5707964
v 23.6229897 142.4100037 25.0000954
vn -1.5707980 -1.5707964 1.5707964
v 23.6229897 42.4099960 5025.0000000
vn -1.5707964 -1.5707963 -1.5707953
v 23.6229897 42.4099960 25.0000954
vn 1.5707980 1.5707964 1.5707964
v 4385.9335938 142.4100037 5025.0000000
vn 1.5707964 -1.5707963 1.5707953
v 4385.9335938 42.4099960 5025.0000000
vn 1.5707964 1.5707963 -1.5707953
v 4385.9335938 142.4100037 25.0000954
vn 1.5707980 -1.5707964 -1.5707964
v 4385.9335938 42.4099960 25.0000954
vn 2.2214422 4.7123890 -0.0000007
v 2159.5881348 742.4100342 2508.6545410
vn 2.2214425 -4.7123890 -0.0000005
v 2159.5881348 142.4099884 2508.6545410
vn -2.2214417 3.1415923 -2.2214413
v 1735.3239746 742.4100342 2084.3903809
vn -2.2214413 -3.1415925 -2.2214417
v 1735.3239746 142.4099884 2084.3903809
vn 0.0000000 1.5707961 2.2214415
v 1735.3239746 742.4100342 2932.9187012
vn -2.2214420 1.5707967 0.0000001
v 1311.0599365 742.4100342 2508.6545410
vn -0.0000002 -1.5707963 2.2214413
v 1735.3239746 142.4099884 2932.9187012
vn -2.2214417 -1.5707967 0.0000000
v 1311.0599365 142.4099884 2508.6545410
vn -2.2214413 -1.5707960 -0.0000004
v 2937.4055176 142.4099884 4135.0000000
vn -2.2214413 1.5707960 -0.0000002
v 2937.4055176 742.4100342 4135.0000000
vn 0.0000004 -1.5707966 -2.2214417
v 3361.6696777 142.4099884 3710.7360840
vn 0.0000002 1.5707966 -2.2214417
v 3361.6696777 742.4100342 3710.7360840
vn 0.0000002 -1.5707960 2.2214413
v 3361.6696777 142.4099884 4559.2641602
vn 2.2214417 -1.5707966 -0.0000002
v 3785.9335938 142.4099884 4135.0000000
vn 0.0000004 1.5707960 2.2214413
v 3361.6696777 742.4100342 4559.2641602
vn 2.2214417 1.5707966 -0.0000004
v 3785.9335938 742.4100342 4135.0000000
vn -2.2214413 -1.5707960 -0.0000004
v 1735.3239746 142.4099884 2932.9184570
vn -2.2214413 1.5707960 -0.0000002
v 1735.3239746 742.4100342 2932.9184570
vn 0.0000002 -1.5707960 2.2214413
v 2159.5881348 142.4099884 3357.1826172
vn 2.2214417 -1.5707966 -0.0000002
v 2583.8520508 142.4099884 2932.9184570
vn 0.0000004 1.5707960 2.2214413
v 2159.5881348 742.4100342 3357.1826172
vn 2.2214417 1.5707966 -0.0000004
v 2583.8520508 742.4100342 2932.9184570
vn -2.2214413 -1.5707963 -0.0000005
v 73.6230087 142.4099884 3746.0913086
vn -2.2214413 1.5707963 -0.0000002
v 73.6230087 742.4100342 3746.0913086
vn 0.0000001 -1.5707967 -2.2214417
v 497.8870850 142.4099884 3321.8273926
vn 0.0000001 1.5707967 -2.2214422
v 497.8870850 742.4100342 3321.8273926
vn -2.2214417 -3.1415927 2.2214413
v 497.8870850 142.4099884 4170.3554688
vn 2.2214415 -3.1415925 -2.2214417
v 922.1511841 142.4099884 3746.0913086
vn -2.2214417 3.1415925 2.2214413
v 497.8870850 742.4100342 4170.3554688
vn 2.2214413 3.1415925 -2.2214417
v 922.1511841 742.4100342 3746.0913086
vn 0.0000000 -1.5707963 2.2214413
v 922.1511841 142.4099884 4594.6196289
vn 2.2214417 -1.5707965 -0.0000001
v 1346.4152832 142.4099884 4170.3554688
vn 0.0000000 1.5707964 2.2214413
v 922.1511841 742.4100342 4594.6196289
vn 2.2214417 1.5707964 0.0000000
v 1346.4152832 742.4100342 4170.3554688
vn -2.2214413 -1.5707960 0.0000002
v 2513.1413574 742.4099731 3710.7360840
vn -2.2214413 1.5707960 0.0000004
v 2513.1413574 1342.4100342 3710.7360840
vn 0.0000001 -1.5707964 -2.2214417
v 2937.4055176 742.4099731 3286.4719238
vn -0.0000001 1.5707964 -2.2214417
v 2937.4055176 1342.4100342 3286.4719238
vn -0.0000001 -1.5707968 2.2214422
v 2937.4055176 742.4099731 4135.0000000
vn 2.2214413 -1.5707960 0.0000004
v 3361.6696777 742.4099731 3710.7360840
vn 0.0000001 1.5707968 2.2214422
v 2937.4055176 1342.4100342 4135.0000000
vn 2.2214413 1.5707960 0.0000002
v 3361.6696777 1342.4100342 3710.7360840
vn 1.5707963 -1.5707964 1.5707963
v 1985.9335938 552.4099731 1125.0001221
vn -1.5707964 -1.5707964 1.5707964
v 1385.9335938 552.4099731 1125.0001221
vn 1.5707964 -1.5707964 -1.5707964
v 1985.9335938 552.4099731 525.0001221
vn -1.5707963 -1.5707964 -1.5707963
v 1385.9335938 552.4099731 525.0001221
vn 1.5707964 1.5707964 1.5707964
v 1985.9335938 1152.4100342 1125.0001221
vn 1.5707963 1.5707964 -1.5707963
v 1985.9335938 1152.4100342 525.0001221
vn -1.5707963 1.5707964 1.5707963
v 1385.9335938 1152.4100342 1125.0001221
vn -1.5707964 1.5707964 -1.5707964
v 1385.9335938 1152.4100342 525.0001221
vn 1.5707961 1.5707963 1.5707964
v 785.9336548 742.4100342 1125.0001221
vn -1.5707964 1.5707964 1.5707963
v 185.9336243 742.4100342 1125.0001221
vn 1.5707964 -1.5707964 1.5707963
v 785.9336548 142.4099884 1125.0001221
vn -1.5707961 -1.5707963 1.5707964
v 185.9336243 142.4099884 1125.0001221
vn 1.5707964 1.5707964 -1.5707963
v 785.9336548 742.4100342 525.0000610
vn 1.5707961 -1.5707963 -1.5707964
v 785.9336548 142.4099884 525.0000610
vn -1.5707961 1.5707963 -1.5707964
v 185.9336243 742.4100342 525.0000610
vn -1.5707964 -1.5707964 -1.5707963
v 185.9336243 142.4099884 525.0000610
vn 1.5707961 1.5707964 -1.5707963
v 785.9336548 1342.4100342 525.0000610
vn -1.5707964 1.5707963 -1.5707964
v 185.9336243 1342.4100342 525.0000610
vn 1.5707964 1.5707963 1.5707964
v 785.9336548 1342.4100342 1125.0001221
vn -1.5707961 1.5707964 1.5707963
v 185.9336243 1342.4100342 1125.0001221
vn 1.5707964 -1.5707963 -1.5707964
v 785.9336548 742.4099731 525.0000610
vn 1.5707961 -1.5707964 1.5707963
v 785.9336548 742.4099731 1125.0001221
vn -1.5707961 -1.5707964 -1.5707963
v 185.9336243 742.4099731 525.0000610
vn -1.5707964 -1.5707963 1.5707964
v 185.9336243 742.4099731 1125.0001221
vn 0.0000004 -1.5707964 -2.2214413
v 2159.5881348 142.4099884 1660.1263428
vn 0.0000002 1.5707964 -2.2214415
v 2159.5881348 742.4100342 1660.1263428
vn 2.2214420 -1.5707968 0.0000000
v 2583.8520508 142.4099884 2084.3903809
vn 2.2214420 1.5707967 -0.0000001
v 2583.8520508 742.4100342 2084.3903809
vn -1.5707963 -1.5707964 -4.7123885
v 1380.9335938 542.4099731 525.0000610
vn -1.5707964 -1.5707963 4.7123880
v 1380.9335938 542.4099731 1125.0001221
vn 1.5707964 -1.5707963 -4.7123880
v 795.9336548 542.4099731 525.0000610
vn 1.5707963 -1.5707964 4.7123890
v 795.9336548 542.4099731 1125.0001221
vn 1.5707963 -1.5707964 4.7123885
v 1390.9335938 542.4099731 1125.0001221
vn 1.5707964 -1.5707963 -4.7123880
v 1390.9335938 542.4099731 525.0000610
vn -1.5707964 -1.5707963 4.7123876
v 1975.9335938 542.4099731 1125.0001221
vn -1.5707963 -1.5707964 -4.7123890
v 1975.9335938 542.4099731 525.0000610
vn -1.5707963 -1.5707937 1.5707964
v 1975.9335938 142.4099884 1125.0001221
vn 1.5707964 -1.5707964 1.5707951
v 1985.9337158 142.4099884 1125.0001221
vn 1.5707964 1.5707961 1.5707965
v 1985.9337158 552.4099731 1125.0001221
vn -1.5707964 -1.5707939 1.5707964
v 785.9335938 142.4099884 1125.0001221
vn 1.5707964 -1.5707964 1.5707986
v 795.9336548 142.4099884 1125.0001221
vn -1.5707964 1.5707964 1.5708649
v 785.9335938 552.4099731 1125.0001221
vn -1.5707963 -1.5707939 1.5707964
v 1380.9335938 142.4099884 1125.0001221
vn 1.5707964 -1.5707964 1.5707953
v 1390.9335938 142.4099884 1125.0001221
vn 1.5707963 -1.5707939 -1.5707964
v 1390.9335938 142.4099884 525.0000610
vn 1.5707963 -1.5707939 -1.5707964
v 795.9336548 142.4099884 525.0000610
vn -1.5707964 -1.5707964 -1.5707952
v 785.9335938 142.4099884 525.0000610
vn -1.5707964 1.5707961 -1.5707963
v 785.9335938 552.4099731 525.0000610
vn 1.5707964 -1.5707937 -1.5707964
v 1985.9337158 142.4099884 525.0000610
vn -1.5707964 -1.5707964 -1.5707985
v 1975.9335938 142.4099884 525.0000610
vn 1.5707964 1.5707964 -1.5708649
v 1985.9337158 552.4099731 525.0000610
vn -1.5707964 -1.5707964 -1.5707953
v 1380.9335938 142.4099884 525.0000610
vn -1.5707964 1.5707963 4.7123890
v 2885.9335938 1092.4100342 1585.0001221
vn -1.5707964 1.5707964 1.5707961
v 2885.9335938 1242.4100342 1585.0001221
vn -1.5707964 1.5707964 -4.7123890
v 2885.9335938 1092.4100342 1435.0001221
vn -1.5707964 1.5707961 -1.5707964
v 2885.9335938 1242.4100342 1435.0001221
vn -1.5707966 1.5707964 1.5707963
v 2285.9335938 1092.4100342 1585.0001221
vn -1.5707964 1.5707963 -1.5707963
v 2285.9335938 1092.4100342 1435.0001221
vn -1.5707964 -1.5707963 1.5707964
v 2285.9335938 142.4099884 1585.0001221
vn -1.5707966 -1.5707964 -1.5707965
v 2285.9335938 142.4099884 1435.0001221
vn 1.5707963 -1.5707964 1.5707964
v 2485.9335938 142.4099884 1585.0001221
vn 1.5707964 -1.5707963 -1.5707964
v 2485.9335938 142.4099884 1435.0001221
vn 1.5707964 -1.5707963 4.7123895
v 2485.9335938 942.4100342 1585.0001221
vn 1.5707963 -1.5707964 -4.7123895
v 2485.9335938 942.4100342 1435.0001221
vn -1.5707963 -1.5707964 4.7123895
v 3585.9335938 942.4100342 1585.0001221
vn -1.5707964 -1.5707963 -4.7123895
v 3585.9335938 942.4100342 1435.0001221
vn -1.5707964 -1.5707963 1.5707964
v 3585.9335938 142.4099884 1585.0001221
vn -1.5707963 -1.5707964 -1.5707964
v 3585.9335938 142.4099884 1435.0001221
vn 1.5707966 -1.5707964 1.5707965
v 3785.9335938 142.4099884 1585.0001221
vn 1.5707964 -1.5707963 -1.5707964
v 3785.9335938 142.4099884 1435.0001221
vn 1.5707964 1.5707963 1.5707963
v 3785.9335938 1092.4100342 1585.0001221
vn 1.5707966 1.5707964 -1.5707963
v 3785.9335938 1092.4100342 1435.0001221
vn 1.5707964 1.5707964 4.7123890
v 3185.9335938 1092.4100342 1585.0001221
vn 1.5707964 1.5707963 -4.7123890
v 3185.9335938 1092.4100342 1435.0001221
vn 1.5707964 1.5707961 1.5707964
v 3185.9335938 1242.4100342 1585.0001221
vn 1.5707964 1.5707964 -1.5707961
v 3185.9335938 1242.4100342 1435.0001221
vn 2.2214425 1.5707949 4.4428830
v 1275.7045898 1042.4100342 3498.6040039
vn 0.0000009 1.5707966 2.2214417
v 1275.7045898 1192.4100342 3498.6040039
vn -4.4428821 1.5707991 -2.2214408
v 1169.6385498 1042.4100342 3392.5380859
vn -2.2214408 1.5707958 0.0000006
v 1169.6385498 1192.4100342 3392.5380859
vn -0.0000008 1.5707949 2.2214398
v 1063.5725098 1042.4100342 3710.7360840
vn -2.2214422 1.5707972 -0.0000013
v 957.5065308 1042.4100342 3604.6699219
vn 2.2214408 1.5707959 4.4428816
v 1063.5725098 892.4099731 3710.7360840
vn -4.4428849 1.5707928 -2.2214422
v 957.5065308 892.4099731 3604.6699219
vn -0.0000004 1.5707972 2.2214425
v 957.5064697 892.4099731 3816.8020020
vn -2.2214413 1.5707964 0.0000006
v 851.4404907 892.4099731 3710.7360840
vn 0.0000001 -1.5707972 2.2214422
v 957.5064697 742.4099731 3816.8020020
vn -2.2214413 -1.5707963 0.0000006
v 851.4404907 742.4099731 3710.7360840
vn 2.2214413 -1.5707963 -0.0000009
v 1169.6385498 742.4099731 3604.6699219
vn -0.0000006 -1.5707971 -2.2214420
v 1063.5725098 742.4099731 3498.6040039
vn 4.4428835 -1.5707984 2.2214401
v 1169.6385498 892.4099731 3604.6699219
vn -2.2214413 -1.5707949 -4.4428844
v 1063.5725098 892.4099731 3498.6040039
vn 2.2214420 -1.5707957 4.4428816
v 1593.9025879 892.4099731 3180.4060059
vn -4.4428830 -1.5707936 -2.2214427
v 1487.8365479 892.4099731 3074.3398438
vn -0.0000005 -1.5707957 2.2214406
v 1593.9025879 742.4099731 3180.4060059
vn -2.2214417 -1.5707965 -0.0000010
v 1487.8365479 742.4099731 3074.3398438
vn 2.2214422 -1.5707970 0.0000006
v 1806.0346680 742.4099731 2968.2739258
vn 0.0000003 -1.5707955 -2.2214406
v 1699.9686279 742.4099731 2862.2077637
vn 2.2214420 1.5707970 0.0000008
v 1806.0346680 892.4099731 2968.2739258
vn 0.0000000 1.5707952 -2.2214403
v 1699.9686279 892.4099731 2862.2077637
vn 4.4428825 1.5708001 2.2214408
v 1699.9686279 892.4099731 3074.3398438
vn -2.2214415 1.5707973 -4.4428844
v 1593.9025879 892.4099731 2968.2739258
vn 2.2214413 1.5707963 -0.0000010
v 1699.9686279 1042.4100342 3074.3398438
vn -0.0000004 1.5707973 -2.2214422
v 1593.9025879 1042.4100342 2968.2739258
vn 4.4428840 1.5707989 2.2214410
v 1487.8365479 1042.4100342 3286.4719238
vn -2.2214417 1.5707997 -4.4428821
v 1381.7706299 1042.4100342 3180.4060059
vn 2.2214417 1.5707966 -0.0000002
v 1487.8365479 1192.4100342 3286.4719238
vn -0.0000001 1.5707964 -2.2214413
v 1381.7706299 1192.4100342 3180.4060059
vn 0.0000000 1.5707968 -2.2214415
v 2477.7861328 1342.4100342 2826.8525391
vn 2.2214415 1.5707966 0.0000001
v 2583.8520508 1342.4100342 2932.9184570
vn -0.0000005 -1.5707964 -2.2214413
v 2477.7861328 742.4099731 2826.8525391
vn 2.2214417 -1.5707967 -0.0000004
v 2583.8520508 742.4099731 2932.9184570
vn -2.2214401 1.5707952 0.0000008
v 2053.5219727 1342.4100342 3251.1166992
vn -2.2214403 -1.5707949 0.0000012
v 2053.5219727 742.4099731 3251.1166992
vn 0.0000016 1.5707972 2.2214422
v 2159.5881348 1342.4100342 3357.1826172
vn 0.0000019 -1.5707971 2.2214422
v 2159.5881348 742.4099731 3357.1826172
# 166 vertices, 0 vertices normals

f 1//1 2//2 3//3
f 3//3 2//2 4//4
f 5//5 1//1 6//6
f 6//6 1//1 3//3
f 7//7 5//5 8//8
f 8//8 5//5 6//6
f 2//2 7//7 4//4
f 4//4 7//7 8//8
f 5//5 7//7 1//1
f 1//1 7//7 2//2
f 8//8 6//6 4//4
f 4//4 6//6 3//3
f 9//9 10//10 11//11
f 11//11 10//10 12//12
f 13//13 9//9 14//14
f 14//14 9//9 11//11
f 15//15 13//13 16//16
f 16//16 13//13 14//14
f 10//10 15//15 12//12
f 12//12 15//15 16//16
f 13//13 15//15 9//9
f 9//9 15//15 10//10
f 16//16 14//14 12//12
f 12//12 14//14 11//11
f 17//17 18//18 19//19
f 19//19 18//18 20//20
f 21//21 17//17 22//22
f 22//22 17//17 19//19
f 23//23 21//21 24//24
f 24//24 21//21 22//22
f 18//18 23//23 20//20
f 20//20 23//23 24//24
f 21//21 23//23 17//17
f 17//17 23//23 18//18
f 24//24 22//22 20//20
f 20//20 22//22 19//19
f 25//25 26//26 10//10
f 10//10 26//26 9//9
f 27//27 25//25 28//28
f 28//28 25//25 10//10
f 29//29 27//27 30//30
f 30//30 27//27 28//28
f 26//26 29//29 9//9
f 9//9 29//29 30//30
f 27//27 29//29 25//25
f 25//25 29//29 26//26
f 30//30 28//28 9//9
f 9//9 28//28 10//10
f 31//31 32//32 33//33
f 33//33 32//32 34//34
f 35//35 31//31 36//36
f 36//36 31//31 33//33
f 37//37 35//35 38//38
f 38//38 35//35 36//36
f 32//32 37//37 34//34
f 34//34 37//37 38//38
f 35//35 37//37 31//31
f 31//31 37//37 32//32
f 38//38 36//36 34//34
f 34//34 36//36 33//33
f 35//35 37//37 36//36
f 36//36 37//37 38//38
f 39//39 35//35 40//40
f 40//40 35//35 36//36
f 41//41 39//39 42//42
f 42//42 39//39 40//40
f 37//37 41//41 38//38
f 38//38 41//41 42//42
f 39//39 41//41 35//35
f 35//35 41//41 37//37
f 42//42 40//40 38//38
f 38//38 40//40 36//36
f 43//43 44//44 45//45
f 45//45 44//44 46//46
f 47//47 43//43 48//48
f 48//48 43//43 45//45
f 49//49 47//47 50//50
f 50//50 47//47 48//48
f 44//44 49//49 46//46
f 46//46 49//49 50//50
f 47//47 49//49 43//43
f 43//43 49//49 44//44
f 50//50 48//48 46//46
f 46//46 48//48 45//45
f 51//51 52//52 53//53
f 53//53 52//52 54//54
f 55//55 51//51 56//56
f 56//56 51//51 53//53
f 57//57 55//55 58//58
f 58//58 55//55 56//56
f 52//52 57//57 54//54
f 54//54 57//57 58//58
f 55//55 57//57 51//51
f 51//51 57//57 52//52
f 58//58 56//56 54//54
f 54//54 56//56 53//53
f 59//59 60//60 61//61
f 61//61 60//60 62//62
f 63//63 59//59 64//64
f 64//64 59//59 61//61
f 65//65 63//63 66//66
f 66//66 63//63 64//64
f 60//60 65//65 62//62
f 62//62 65//65 66//66
f 63//63 65//65 59//59
f 59//59 65//65 60//60
f 66//66 64//64 62//62
f 62//62 64//64 61//61
f 67//67 68//68 69//69
f 69//69 68//68 70//70
f 71//71 67//67 72//72
f 72//72 67//67 69//69
f 73//73 71//71 74//74
f 74//74 71//71 72//72
f 68//68 73//73 70//70
f 70//70 73//73 74//74
f 71//71 73//73 67//67
f 67//67 73//73 68//68
f 74//74 72//72 70//70
f 70//70 72//72 69//69
f 75//75 76//76 77//77
f 77//77 76//76 78//78
f 12//12 75//75 10//10
f 10//10 75//75 77//77
f 11//11 12//12 9//9
f 9//9 12//12 10//10
f 76//76 11//11 78//78
f 78//78 11//11 9//9
f 12//12 11//11 75//75
f 75//75 11//11 76//76
f 9//9 10//10 78//78
f 78//78 10//10 77//77
f 79//79 80//80 81//81
f 81//81 80//80 82//82
f 83//83 84//84 85//85
f 85//85 84//84 86//86
f 87//87 88//88 85//85
f 85//85 88//88 89//89
f 85//85 89//89 83//83
f 90//90 91//91 92//92
f 92//92 91//91 82//82
f 92//92 82//82 80//80
f 93//93 94//94 80//80
f 80//80 94//94 83//83
f 80//80 83//83 92//92
f 92//92 83//83 89//89
f 84//84 83//83 95//95
f 95//95 83//83 94//94
f 96//96 97//97 81//81
f 81//81 97//97 98//98
f 81//81 98//98 79//79
f 99//99 100//100 101//101
f 101//101 100//100 86//86
f 101//101 86//86 84//84
f 95//95 102//102 84//84
f 84//84 102//102 79//79
f 84//84 79//79 101//101
f 101//101 79//79 98//98
f 80//80 79//79 93//93
f 93//93 79//79 102//102
f 102//102 95//95 93//93
f 93//93 95//95 94//94
f 90//90 92//92 97//97
f 97//97 92//92 98//98
f 99//99 101//101 88//88
f 88//88 101//101 89//89
f 92//92 89//89 98//98
f 98//98 89//89 101//101
f 85//85 86//86 87//87
f 87//87 86//86 100//100
f 100//100 99//99 87//87
f 87//87 99//99 88//88
f 81//81 82//82 96//96
f 96//96 82//82 91//91
f 97//97 96//96 90//90
f 90//90 96//96 91//91
f 103//103 104//104 105//105
f 105//105 104//104 106//106
f 107//107 103//103 108//108
f 108//108 103//103 105//105
f 109//109 107//107 110//110
f 110//110 107//107 108//108
f 111//111 109//109 112//112
f 112//112 109//109 110//110
f 113//113 111//111 114//114
f 114//114 111//111 112//112
f 115//115 113//113 116//116
f 116//116 113//113 114//114
f 117//117 115//115 118//118
f 118//118 115//115 116//116
f 119//119 117//117 120//120
f 120//120 117//117 118//118
f 121//121 119//119 122//122
f 122//122 119//119 120//120
f 123//123 121//121 124//124
f 124//124 121//121 122//122
f 125//125 123//123 126//126
f 126//126 123//123 124//124
f 104//104 125//125 106//106
f 106//106 125//125 126//126
f 123//123 125//125 104//104
f 115//115 117//117 119//119
f 109//109 111//111 107//107
f 107//107 111//111 113//113
f 107//107 113//113 103//103
f 103//103 113//113 115//115
f 104//104 103//103 123//123
f 123//123 103//103 115//115
f 123//123 115//115 121//121
f 121//121 115//115 119//119
f 105//105 106//106 126//126
f 114//114 112//112 110//110
f 120//120 118//118 122//122
f 122//122 118//118 116//116
f 122//122 116//116 124//124
f 124//124 116//116 114//114
f 126//126 124//124 105//105
f 105//105 124//124 114//114
f 105//105 114//114 108//108
f 108//108 114//114 110//110
f 127//127 128//128 129//129
f 129//129 128//128 130//130
f 131//131 127//127 132//132
f 132//132 127//127 129//129
f 133//133 131//131 134//134
f 134//134 131//131 132//132
f 135//135 133//133 136//136
f 136//136 133//133 134//134
f 137//137 135//135 138//138
f 138//138 135//135 136//136
f 139//139 137//137 140//140
f 140//140 137//137 138//138
f 141//141 139//139 142//142
f 142//142 139//139 140//140
f 143//143 141//141 144//144
f 144//144 141//141 142//142
f 145//145 143//143 146//146
f 146//146 143//143 144//144
f 147//147 145//145 148//148
f 148//148 145//145 146//146
f 149//149 147//147 150//150
f 150//150 147//147 148//148
f 151//151 149//149 152//152
f 152//152 149//149 150//150
f 153//153 151//151 154//154
f 154//154 151//151 152//152
f 155//155 153//153 156//156
f 156//156 153//153 154//154
f 157//157 155//155 158//158
f 158//158 155//155 156//156
f 128//128 157//157 130//130
f 130//130 157//157 158//158
f 157//157 128//128 155//155
f 155//155 128//128 127//127
f 135//135 137//137 133//133
f 133//133 137//137 139//139
f 133//133 139//139 131//131
f 131//131 139//139 141//141
f 131//131 141//141 127//127
f 127//127 141//141 143//143
f 127//127 143//143 155//155
f 147//147 149//149 145//145
f 145//145 149//149 151//151
f 145//145 151//151 143//143
f 143//143 151//151 153//153
f 143//143 153//153 155//155
f 130//130 158//158 129//129
f 129//129 158//158 156//156
f 150//150 148//148 152//152
f 152//152 148//148 146//146
f 152//152 146//146 154//154
f 154//154 146//146 144//144
f 154//154 144//144 156//156
f 156//156 144//144 142//142
f 156//156 142//142 129//129
f 138//138 136//136 140//140
f 140//140 136//136 134//134
f 140//140 134//134 142//142
f 142//142 134//134 132//132
f 142//142 132//132 129//129
f 159//159 160//160 161//161
f 161//161 160//160 162//162
f 163//163 159//159 164//164
f 164//164 159//159 161//161
f 165//165 163//163 166//166
f 166//166 163//163 164//164
f 160//160 165//165 162//162
f 162//162 165//165 166//166
f 163//163 165//165 159//159
f 159//159 165//165 160//160
f 166//166 164//164 162//162
f 162//162 164//164 161//161
# 292 faces, 0 coords texture

# End of File
